<svg version="1.1" xmlns="http://www.w3.org/2000/svg" xmlns:xlink="http://www.w3.org/1999/xlink" width="33.18535" height="31.25393" viewBox="0,0,33.18535,31.25393"><defs><linearGradient x1="231.55599" y1="180.10484" x2="226.48572" y2="180.10484" gradientUnits="userSpaceOnUse" id="color-1"><stop offset="0" stop-color="#787878"/><stop offset="1" stop-color="#a5a5a5"/></linearGradient></defs><g transform="translate(-221.3071,-164.366)"><g stroke-miterlimit="10"><g fill="#8b8b8b" stroke="#8b8b8b" stroke-width="0.5" stroke-linecap="round"><path d="M247.60619,176.53491l-5.92164,3.67592"/><path d="M241.79272,180.2119l5.92164,3.67592"/></g><g fill="#8b8b8b" stroke="#8b8b8b" stroke-width="0.5" stroke-linecap="round"><path d="M245.75879,179.9783l-5.92166,-3.67592"/><path d="M245.65062,179.97935l-5.92164,3.67592"/></g><g fill="#8b8b8b" stroke="#8b8b8b" stroke-width="0.5" stroke-linecap="round"><path d="M230.21038,179.97937l5.92166,3.78408"/><path d="M236.24019,176.19419l-5.92164,3.78408"/></g><g fill="#8b8b8b" stroke="#8b8b8b" stroke-width="0.5" stroke-linecap="round"><path d="M227.58693,179.97937l-5.92164,3.78408"/><path d="M221.5571,176.19419l5.92164,3.78408"/></g><path d="M244.9964,180.78442c0,0 -8.25119,12.22001 -12.27248,12.78051c-2.89948,0.40415 -1.88763,0.37632 -4.85237,-0.00002c-3.85703,-0.48959 -2.72477,-1.68872 -2.42205,-7.32013c0.16402,-3.05114 5.7688,-6.99795 5.7688,-6.99795" fill="none" stroke="#cecece" stroke-width="0.5" stroke-linecap="round"/><path d="M250.30328,180.6154c0,0 -12.77388,14.19403 -16.79517,14.75453c-2.89948,0.40415 -3.58448,0.39662 -6.54922,0.02028c-3.85703,-0.48959 -3.1304,-4.22385 -2.82767,-9.85527c0.16402,-3.05114 7.08707,-6.28811 7.08707,-6.28811" fill="none" stroke="#7e7e7e" stroke-width="0.5" stroke-linecap="round"/><path d="M231.1169,180.75936c0,0 -5.60479,-3.94681 -5.7688,-6.99794c-0.30274,-5.63141 -1.43498,-6.83056 2.42203,-7.32013c2.96474,-0.37632 3.03455,-0.29596 5.60954,0.75718c3.91312,3.58914 11.62349,12.88867 11.62349,12.88867" fill="none" stroke="#cecece" stroke-width="0.5" stroke-linecap="round"/><path d="M231.1169,180.75938c0,0 -6.92306,-3.23698 -7.08707,-6.28811c-0.30274,-5.63141 -1.02935,-9.36568 2.82767,-9.85527c2.96474,-0.37632 4.08241,-0.38385 6.87372,0.8856c4.45396,2.83199 16.57884,14.32188 16.57884,14.32188" fill="none" stroke="#7e7e7e" stroke-width="0.5" stroke-linecap="round"/><path d="M226.48572,192.23968v-24.26971h5.07027v24.26971z" fill="url(#color-1)" stroke="#626262" stroke-width="0.5" stroke-linecap="butt"/><path d="M231.89937,179.93204c-0.00076,0.74816 -0.30465,1.3544 -0.67875,1.354c-0.37411,-0.00041 -0.67669,-0.60723 -0.67591,-1.35539c0.00076,-0.74816 0.30465,-1.3544 0.67874,-1.354c0.37411,0.00041 0.67669,0.60723 0.67593,1.35539z" fill="#000000" stroke="none" stroke-width="0" stroke-linecap="butt"/><g fill="#000000"><path d="M227.96667,181.30921l0.00289,-2.78466l3.08302,0.00316l-0.00289,2.78466z" stroke="none" stroke-width="NaN" stroke-linecap="butt"/><g><path d="M236.54288,181.41756l0.00289,-2.78468l14.9931,0.01556l-0.0029,2.78468z" stroke="none" stroke-width="NaN" stroke-linecap="butt"/><path d="M252.38912,180.03796c-0.0008,0.76375 -0.30467,1.38262 -0.67878,1.38221c-0.37411,-0.00041 -0.67669,-0.61987 -0.67593,-1.38363c0.0008,-0.76375 0.30467,-1.38259 0.67875,-1.38221c0.37411,0.00041 0.67671,0.61986 0.6759,1.38361z" stroke="none" stroke-width="0" stroke-linecap="butt"/><path d="M236.75499,178.69528l-0.17213,2.7092l-5.52898,-2.60226l0.1672,2.08868l5.47752,-2.19571" stroke="#000000" stroke-width="0.05" stroke-linecap="round"/><path d="M230.88386,179.42295l5.75717,0.28822l-0.22689,1.07224l-5.9263,-0.51417z" stroke="#000000" stroke-width="0.05" stroke-linecap="round"/><path d="M250.35624,180.86749l0.00161,-1.5504l3.49966,0.00363l-0.00161,1.55042z" stroke="none" stroke-width="0" stroke-linecap="butt"/><path d="M253.72156,181.24916l0.0026,-2.50243l0.7683,0.0008l-0.0026,2.50244z" stroke="none" stroke-width="0" stroke-linecap="butt"/></g></g></g></g></svg>