<svg version="1.1" xmlns="http://www.w3.org/2000/svg" xmlns:xlink="http://www.w3.org/1999/xlink" width="8.62575" height="8.375" viewBox="0,0,8.62575,8.375"><defs><radialGradient cx="240" cy="180" r="4.31287" gradientUnits="userSpaceOnUse" id="color-1"><stop offset="0" stop-color="#760094"/><stop offset="1" stop-color="#760094" stop-opacity="0"/></radialGradient><radialGradient cx="240" cy="180" r="2.78331" gradientUnits="userSpaceOnUse" id="color-2"><stop offset="0" stop-color="#8100ff"/><stop offset="1" stop-color="#7800c7"/></radialGradient></defs><g transform="translate(-235.68713,-175.8125)"><g data-paper-data="{&quot;isPaintingLayer&quot;:true}" fill-rule="nonzero" stroke-width="0" stroke-linecap="butt" stroke-linejoin="miter" stroke-miterlimit="10" stroke-dasharray="" stroke-dashoffset="0" style="mix-blend-mode: normal"><path d="M244.31287,180c0,2.31269 -1.93094,4.1875 -4.31287,4.1875c-2.38193,0 -4.31287,-1.87481 -4.31287,-4.1875c0,-2.31269 1.93094,-4.1875 4.31287,-4.1875c2.38193,0 4.31287,1.87481 4.31287,4.1875z" fill="url(#color-1)" stroke="none"/><path d="M237.21669,180c0,-1.53718 1.24613,-2.78331 2.78331,-2.78331c1.53718,0 2.78331,1.24613 2.78331,2.78331c0,1.53718 -1.24613,2.78331 -2.78331,2.78331c-1.53718,0 -2.78331,-1.24613 -2.78331,-2.78331z" fill="url(#color-2)" stroke="#000000"/></g></g></svg>