<svg version="1.1" xmlns="http://www.w3.org/2000/svg" xmlns:xlink="http://www.w3.org/1999/xlink" width="49.66274" height="54.83867" viewBox="0,0,49.66274,54.83867"><g transform="translate(-215.20594,-156.81538)"><g fill="#ffffff" stroke="none" stroke-miterlimit="10"><path d="M262.78623,171.09844c0.05254,2.02274 0.15762,4.25564 0.15011,6.49229c0.01501,1.65497 0.31148,3.23864 0.84437,4.70597l-0.03002,-0.09757c0.42782,1.07329 0.79183,2.34548 1.03201,3.6627l0.01876,0.12759c0.43907,3.2499 -1.31722,5.11127 -3.97793,6.52982c-0.15762,0.08631 -0.34525,0.13885 -0.54415,0.13885c-0.01126,0 -0.02627,0 -0.03753,0v0c-0.19139,-0.03377 -0.36402,-0.09007 -0.52539,-0.17263l0.01126,0.00375c-0.17638,-0.63797 0.19139,-1.03576 0.43532,-1.46733c0.30773,-0.53289 0.63797,-1.03576 0.91943,-1.57991c0.70927,-1.41104 0.51038,-2.49184 -0.63422,-3.56513c-0.2064,-0.17638 -0.43157,-0.34901 -0.66799,-0.50662l-0.02627,-0.01501c-1.78257,-0.37527 -3.08478,0.55541 -4.37948,1.45232c-1.8351,1.26468 -2.89714,2.94592 -2.81082,5.25387c0.03753,0.91943 0.04128,1.8351 0,2.75453c-0.04128,0.7468 -0.17638,1.48985 -0.27395,2.31921h-1.73378c-0.68676,-0.55916 -0.86314,-1.40353 -0.9532,-2.17285c-0.37152,-3.03224 -2.25166,-4.67595 -4.96116,-5.53158c-1.36976,-0.46534 -2.94592,-0.73179 -4.58213,-0.73179c-1.77506,0 -3.47506,0.31523 -5.05123,0.89316l0.10132,-0.03377c-2.51435,0.8894 -4.25188,2.49559 -4.58963,5.32143c-0.06005,0.88565 -0.42031,1.67373 -0.97197,2.28168l0.00375,-0.00375h-1.72252c-0.10883,-0.78433 -0.26269,-1.53113 -0.30773,-2.25917c-0.05254,-0.96821 -0.04879,-1.94018 0,-2.9084c0.08631,-1.99647 -0.7468,-3.56888 -2.25917,-4.75851c-0.79183,-0.61921 -1.68499,-1.16711 -2.64195,-1.60619l-0.08256,-0.03377c-0.6117,-0.28146 -1.35475,-0.28521 -2.01523,-0.4053c-0.42406,0.31148 -0.79559,0.62296 -1.14459,0.95696l0.00375,-0.00375c-0.82936,0.91943 -1.05828,1.94769 -0.45784,3.08102c0.33024,0.6117 0.73554,1.2234 1.04702,1.85387c0.21015,0.42406 0.66049,0.8181 0.30773,1.4936c-0.23267,0 -0.57042,0.14261 -0.79559,0.03377c-1.94769,-0.91943 -3.56513,-2.21038 -4.11303,-4.40575c-0.34901,-1.40729 -0.09757,-2.82584 0.34525,-4.1956c0.3415,-1.05828 0.76557,-2.09404 1.03201,-3.16734c0.19139,-0.79559 0.32274,-1.72252 0.35651,-2.67197v-0.02627c0.0638,-1.2234 0,-2.4468 0.04504,-3.67396c0.04128,-1.11082 0.1351,-2.22539 0.26269,-3.33246c0.05254,-0.75056 0.49912,-1.38477 1.12958,-1.70376l0.01126,-0.00375c1.20464,-0.53664 1.79007,-1.53113 2.47683,-2.57065c2.88212,-4.36447 7.17154,-7.5956 12.21526,-9.06669l0.15386,-0.03753c1.9702,-0.59294 4.23687,-0.93069 6.5786,-0.93069c1.12583,0 2.2329,0.07881 3.31744,0.22892l-0.12384,-0.01501c4.42826,0.5404 8.26359,2.32296 11.67486,5.08125c1.88764,1.53864 3.46005,3.38124 4.66094,5.46403l0.04879,0.09382c0.3415,0.6117 0.72428,1.11082 1.36226,1.36976c0.82936,0.334 1.25718,1.00574 1.87638,2.05652zM245.14822,167.62713c0.12009,1.55365 0.24393,3.26866 0.37903,4.98368c0.14636,1.88764 1.2234,2.92341 2.63445,3.29868c2.75453,0.7393 5.55034,1.04327 8.35366,1.36226c0.09382,0.01501 0.1989,0.02252 0.30773,0.02252c0.69801,0 1.31347,-0.35651 1.66998,-0.89691l0.00375,-0.00751c0.62671,-0.91943 0.91943,-4.07926 -0.21391,-5.20133c-1.05077,-1.05453 -2.11281,-1.99647 -3.57263,-2.49559c-2.49559,-0.85563 -5.06999,-1.32097 -7.65189,-1.73378c-0.57042,-0.09382 -1.23841,-0.24393 -1.91766,0.67175zM234.77932,167.21058c-0.31899,-0.1351 -0.69051,-0.22892 -1.0808,-0.26645h-0.01501c-0.86689,0.02627 -1.6925,0.13135 -2.49184,0.30773l0.09007,-0.01501c-2.10905,0.48786 -4.25564,0.89691 -6.29714,1.59493c-2.88588,0.98698 -4.30067,3.3212 -3.88411,6.09825c0.30773,1.96645 1.20089,2.5031 2.87837,2.33422c1.50486,-0.15011 3.00972,-0.334 4.50332,-0.59294c1.23841,-0.21766 2.4468,-0.57042 3.67396,-0.85188c1.36601,-0.30773 2.07153,-1.30971 2.31546,-2.55188c0.25144,-1.24592 0.3978,-2.67572 0.3978,-4.1393c0,-0.67175 -0.03002,-1.33974 -0.09007,-1.99647l0.00751,0.08631zM243.4257,182.08279c0.19139,-0.4053 0.41281,-0.85188 0.6117,-1.30596c0.45784,-1.06954 0.42031,-2.22164 0.24018,-3.30994c-0.37152,-2.22164 -1.24592,-4.18809 -2.5106,-5.84681l0.02252,0.03377c-1.07329,-1.43356 -2.40552,-1.39978 -3.51634,0.02252c-0.06005,0.07881 -0.09007,0.18388 -0.15386,0.26269c-1.11832,1.52363 -1.92517,3.34747 -2.28168,5.32518l-0.01126,0.07881c-0.09007,0.41281 -0.14261,0.8894 -0.14261,1.37351c0,0.80309 0.14261,1.57241 0.4053,2.28168l-0.01501,-0.04504c0.45784,1.2234 1.33599,1.5649 2.53687,1.0095c0.22892,-0.10883 0.43157,-0.2702 0.66424,-0.36777c0.35651,-0.15386 0.72428,-0.27395 1.06203,-0.3978c0.87815,0.78058 1.71502,1.33599 3.09228,0.88565z"/><path d="M226.71462,203.57114c0.96821,0.22517 0.96821,0.22517 1.8351,-0.18388c0.50662,-2.3042 2.10155,-3.88787 4.1393,-4.91237c4.09802,-2.06027 8.35366,-2.60817 12.75941,-0.83687c1.63245,0.66424 3.12981,1.42605 4.35321,2.69824c0.8819,0.91943 1.34349,2.00398 1.86513,3.26116l1.60243,0.0713c0.51413,-0.8106 0.8181,-1.79382 0.8181,-2.8521c0,-0.08256 0,-0.16512 -0.00375,-0.24768v0.01126c0.01752,-1.98647 0.02377,-3.97418 0.01876,-5.96315c0,-0.00751 0,-0.01501 0,-0.02252c0,-1.00574 0.21766,-1.95895 0.60795,-2.81833l-0.01876,0.04128c0.25894,-0.58168 0.63422,-0.91943 1.38852,-0.68676c0.70927,1.39603 0.43157,2.91965 0.35651,4.42076c-0.02627,0.45408 -0.13135,0.90066 -0.15386,1.351c-0.12384,2.54062 -0.14636,5.085 -0.37903,7.61436c-0.16137,1.58742 -0.49537,3.03974 -0.97947,4.41701l0.04128,-0.13135c-0.87439,2.59316 -3.73775,3.56513 -6.08324,2.1691c-1.13709,-0.67175 -2.21413,-1.45232 -3.3925,-2.03025c-1.12583,-0.60044 -2.43554,-1.12208 -3.80531,-1.49735l-0.1351,-0.03002c-0.49537,-0.11258 -1.06578,-0.18013 -1.65122,-0.18013c-1.29846,0 -2.52186,0.32274 -3.5914,0.8894l0.04128,-0.01876c-1.63245,0.79559 -3.1861,1.75629 -4.79229,2.61192c-0.59669,0.37152 -1.28345,0.6755 -2.01523,0.87064l-0.05254,0.01126c-1.93643,0.37152 -3.90288,-1.18212 -4.35697,-2.6382c-0.42406,-1.2234 -0.76932,-2.66447 -0.96821,-4.15431l-0.01126,-0.11633c-0.23267,-2.16535 -0.24393,-4.36072 -0.35651,-6.54483c-0.08256,-1.56866 -0.22142,-3.13731 -0.25144,-4.70973c0.03377,-0.79934 0.12759,-1.55365 0.2702,-2.28544l-0.01501,0.09757c0.75431,-0.36777 1.27594,-0.15011 1.47859,0.44283c0.32274,0.81435 0.5479,1.75629 0.63797,2.73952l0.00375,0.04128c0.10132,2.034 0.03377,4.0755 0.05254,6.12076c0.02627,1.09206 0.29647,2.11281 0.75431,3.02473l-0.01876,-0.04128z"/></g></g></svg>