<svg version="1.1" xmlns="http://www.w3.org/2000/svg" xmlns:xlink="http://www.w3.org/1999/xlink" width="7.78525" height="3.1" viewBox="0,0,7.78525,3.1"><defs><linearGradient x1="236.36667" y1="180" x2="243.63334" y2="180" gradientUnits="userSpaceOnUse" id="color-1"><stop offset="0" stop-color="#6a6a6a"/><stop offset="1" stop-color="#8d8d8d"/></linearGradient><linearGradient x1="242.00688" y1="180.03797" x2="243.64022" y2="180.03797" gradientUnits="userSpaceOnUse" id="color-2"><stop offset="0" stop-color="#a37f00"/><stop offset="1" stop-color="#cfa321"/></linearGradient></defs><g transform="translate(-236.11666,-178.45)"><g stroke-miterlimit="10"><path d="M236.36667,181.3v-2.6h5.31376c0,0 0.82228,0.05222 1.2529,0.33051c0.43062,0.27829 0.7,0.93155 0.7,0.93155c0,0 -0.26175,0.69979 -0.63333,0.96336c-0.37158,0.26357 -1.2529,0.37458 -1.2529,0.37458z" fill="url(#color-1)" stroke="#424242" stroke-width="0.5" stroke-linecap="butt"/><path d="M238.27355,178.76917v2.4017" fill="none" stroke="#424242" stroke-width="0.25" stroke-linecap="round"/><path d="M242.10688,181.13797c0,0 1.33333,-0.34033 1.33333,-1.13333c0,-0.793 -1.33333,-1.13333 -1.33333,-1.13333z" fill="url(#color-2)" stroke="#000000" stroke-width="0" stroke-linecap="round"/><path d="M242.10688,178.83797v2.33333" fill="none" stroke="#424242" stroke-width="0.5" stroke-linecap="round"/></g></g></svg>