<svg version="1.1" xmlns="http://www.w3.org/2000/svg" xmlns:xlink="http://www.w3.org/1999/xlink" width="16.70515" height="15.87656" viewBox="0,0,16.70515,15.87656"><defs><linearGradient x1="237.14418" y1="179.93917" x2="233.26918" y2="179.93917" gradientUnits="userSpaceOnUse" id="color-1"><stop offset="0" stop-color="#ff6666"/><stop offset="1" stop-color="#ff0000"/></linearGradient><linearGradient x1="239.47621" y1="179.58849" x2="232.35121" y2="179.58849" gradientUnits="userSpaceOnUse" id="color-2"><stop offset="0" stop-color="#ff6666"/><stop offset="1" stop-color="#ff0000"/></linearGradient><linearGradient x1="235.20509" y1="172.96296" x2="246.77449" y2="180.15944" gradientUnits="userSpaceOnUse" id="color-3"><stop offset="0" stop-color="#ff6666"/><stop offset="1" stop-color="#ff0000"/></linearGradient><linearGradient x1="234.44866" y1="186.48705" x2="247.81665" y2="186.91999" gradientUnits="userSpaceOnUse" id="color-4"><stop offset="0" stop-color="#ff6666"/><stop offset="1" stop-color="#ff0000"/></linearGradient></defs><g transform="translate(-231.85121,-172.37666)"><g data-paper-data="{&quot;isPaintingLayer&quot;:true}" fill-rule="nonzero" stroke-linejoin="miter" stroke-miterlimit="10" stroke-dasharray="" stroke-dashoffset="0" style="mix-blend-mode: normal"><path d="M237.14418,179.93917c0,3.90051 -0.86745,7.0625 -1.9375,7.0625c-1.07005,0 -1.9375,-3.16199 -1.9375,-7.0625c0,-3.90051 0.86745,-7.0625 1.9375,-7.0625c1.07005,0 1.9375,3.16199 1.9375,7.0625z" data-paper-data="{&quot;index&quot;:null}" fill="url(#color-1)" stroke="#c50000" stroke-width="1" stroke-linecap="butt"/><path d="M239.47621,179.58849c0,1.76041 -1.59499,3.1875 -3.5625,3.1875c-1.96751,0 -3.5625,-1.42709 -3.5625,-3.1875c0,-1.76041 1.59499,-3.1875 3.5625,-3.1875c1.96751,0 3.5625,1.42709 3.5625,3.1875z" data-paper-data="{&quot;index&quot;:null}" fill="url(#color-2)" stroke="#c50000" stroke-width="1" stroke-linecap="butt"/><path d="M241.584,175.60594c3.19481,1.98726 5.51866,4.02593 5.19049,4.55352c-0.32817,0.52758 -3.1841,-0.65571 -6.37891,-2.64297c-3.19481,-1.98726 -5.51866,-4.02594 -5.19049,-4.55353c0.32817,-0.52758 3.1841,0.65572 6.3789,2.64298z" fill="url(#color-3)" stroke="#c50000" stroke-width="1" stroke-linecap="butt"/><path d="M237.14922,187.75323c-2.34948,-0.24566 -2.71509,-0.81775 -2.70057,-1.26617c0.01474,-0.45482 1.71938,-0.7901 4.13362,-0.87762c0.79645,-0.02887 7.16612,-3.7582 7.70613,-3.20263c0.71957,0.74029 -4.08426,3.93922 -6.9791,5.18629c-0.92933,0.40035 -1.9609,0.18096 -2.16009,0.16013z" fill="url(#color-4)" stroke="#c50000" stroke-width="1" stroke-linecap="butt"/><g fill="#000000"><path d="M238.47399,184.58081c0.15004,0.3253 0.13983,0.64983 -0.02283,0.72485c-0.16266,0.07502 -0.41613,-0.12788 -0.56617,-0.45318c-0.15004,-0.3253 -0.13983,-0.64983 0.02283,-0.72485c0.16266,-0.07502 0.41613,0.12788 0.56617,0.45318z" stroke="none" stroke-width="0" stroke-linecap="butt"/><g><path d="M237.0417,185.96975l-0.55844,-1.21075l1.34047,-0.61828l0.55844,1.21075z" stroke="none" stroke-width="NaN" stroke-linecap="butt"/><g><path d="M240.79057,184.29308l-0.55845,-1.21076l6.5189,-3.00673l0.55844,1.21076z" stroke="none" stroke-width="NaN" stroke-linecap="butt"/><path d="M247.39981,180.50856c0.15317,0.33208 0.14549,0.6621 -0.01717,0.73712c-0.16266,0.07502 -0.41867,-0.13337 -0.57184,-0.46545c-0.15317,-0.33208 -0.14548,-0.66209 0.01717,-0.73711c0.16266,-0.07502 0.41867,0.13336 0.57183,0.46544z" stroke="none" stroke-width="0" stroke-linecap="butt"/><path d="M240.33559,183.06739l0.46972,1.21198l-2.92585,-0.01962l0.49246,0.8741l1.93913,-2.05516" stroke="#000000" stroke-width="0.05" stroke-linecap="round"/><path d="M237.93035,184.56368l2.55991,-1.03189l0.11691,0.51158l-2.67882,0.96769z" stroke="#000000" stroke-width="0.05" stroke-linecap="round"/><path d="M246.68308,181.27766l-0.31092,-0.6741l1.52163,-0.70183l0.31092,0.67411z" stroke="none" stroke-width="0" stroke-linecap="butt"/><path d="M248.22231,180.76713l-0.50184,-1.08804l0.33405,-0.15408l0.50184,1.08804z" stroke="none" stroke-width="0" stroke-linecap="butt"/></g></g></g></g></g></svg>