<svg version="1.1" xmlns="http://www.w3.org/2000/svg" xmlns:xlink="http://www.w3.org/1999/xlink" width="23.33268" height="30.71576" viewBox="0,0,23.33268,30.71576"><defs><linearGradient x1="235.88999" y1="179.91228" x2="230.46172" y2="179.91228" gradientUnits="userSpaceOnUse" id="color-1"><stop offset="0" stop-color="#56d661"/><stop offset="1" stop-color="#66ff73"/></linearGradient><linearGradient x1="239.1568" y1="179.42104" x2="229.17579" y2="179.42104" gradientUnits="userSpaceOnUse" id="color-2"><stop offset="0" stop-color="#56d661"/><stop offset="1" stop-color="#66ff73"/></linearGradient><linearGradient x1="232.80536" y1="170.49983" x2="251.25848" y2="165.62378" gradientUnits="userSpaceOnUse" id="color-3"><stop offset="0" stop-color="#56d661"/><stop offset="1" stop-color="#66ff73"/></linearGradient><linearGradient x1="233.0263" y1="189.49051" x2="251.03752" y2="194.6522" gradientUnits="userSpaceOnUse" id="color-4"><stop offset="0" stop-color="#56d661"/><stop offset="1" stop-color="#66ff73"/></linearGradient><linearGradient x1="237.37174" y1="175.58368" x2="239.02609" y2="173.92933" gradientUnits="userSpaceOnUse" id="color-5"><stop offset="0" stop-color="#d68b6b"/><stop offset="1" stop-color="#ffb799"/></linearGradient><linearGradient x1="238.99857" y1="177.37193" x2="240.89283" y2="175.99879" gradientUnits="userSpaceOnUse" id="color-6"><stop offset="0" stop-color="#d68b6b"/><stop offset="1" stop-color="#ffb799"/></linearGradient><linearGradient x1="237.37174" y1="183.38249" x2="239.02609" y2="185.03684" gradientUnits="userSpaceOnUse" id="color-7"><stop offset="0" stop-color="#d68b6b"/><stop offset="1" stop-color="#ffb799"/></linearGradient><linearGradient x1="238.99857" y1="181.59424" x2="240.89283" y2="182.96737" gradientUnits="userSpaceOnUse" id="color-8"><stop offset="0" stop-color="#d68b6b"/><stop offset="1" stop-color="#ffb799"/></linearGradient><linearGradient x1="239.92157" y1="179.48487" x2="242.26097" y2="179.45431" gradientUnits="userSpaceOnUse" id="color-9"><stop offset="0" stop-color="#d68b6b"/><stop offset="1" stop-color="#ffb799"/></linearGradient></defs><g transform="translate(-228.5508,-164.56144)"><g data-paper-data="{&quot;isPaintingLayer&quot;:true}" fill-rule="nonzero" stroke-linejoin="miter" stroke-miterlimit="10" stroke-dasharray="" stroke-dashoffset="0" style="mix-blend-mode: normal"><path d="M235.88999,179.91228c0,5.464 -1.21516,9.89345 -2.71413,9.89345c-1.49898,0 -2.71413,-4.42945 -2.71413,-9.89345c0,-5.464 1.21515,-9.89345 2.71413,-9.89345c1.49898,0 2.71413,4.42944 2.71413,9.89345z" data-paper-data="{&quot;index&quot;:null}" fill="url(#color-1)" stroke="#33c43f" stroke-width="1.25" stroke-linecap="butt"/><path d="M239.1568,179.42104c0,2.46606 -2.23433,4.46518 -4.9905,4.46518c-2.75617,0 -4.9905,-1.99912 -4.9905,-4.46518c0,-2.46606 2.23434,-4.46519 4.9905,-4.46519c2.75617,0 4.9905,1.99913 4.9905,4.46519z" data-paper-data="{&quot;index&quot;:null}" fill="url(#color-2)" stroke="#33c43f" stroke-width="1.25" stroke-linecap="butt"/><path d="M241.62932,166.53815c5.0957,-1.34648 9.40679,-1.75587 9.62916,-0.91438c0.22236,0.84147 -3.72827,2.6152 -8.82395,3.96168c-5.0957,1.34648 -9.40679,1.75587 -9.62916,0.91438c-0.22236,-0.84147 3.72827,-2.6152 8.82395,-3.96168z" fill="url(#color-3)" stroke="#33c43f" stroke-width="1.25" stroke-linecap="butt"/><path d="M242.45479,190.59573c4.97368,1.42537 8.81629,3.2415 8.58274,4.05647c-0.23356,0.81495 -4.45485,0.32013 -9.42848,-1.10523c-4.97368,-1.42537 -8.81629,-3.2415 -8.58274,-4.05647c0.23356,-0.81495 4.45485,-0.32013 9.42849,1.10522z" fill="url(#color-4)" stroke="#33c43f" stroke-width="1.25" stroke-linecap="butt"/><g data-paper-data="{&quot;index&quot;:null}" stroke="#c47c58" stroke-width="0.5" stroke-linecap="butt"><path d="M238.19891,176.41086l-1.65435,-1.65435l2.4493,-0.85941z" fill="url(#color-5)"/><path d="M239.68514,178.31906l-1.37314,-1.89426l2.55409,-0.46291z" fill="url(#color-6)"/></g><g data-paper-data="{&quot;index&quot;:null}" stroke="#c47c58" stroke-width="0.5" stroke-linecap="butt"><path d="M238.99386,185.06906l-2.4493,-0.8594l1.65435,-1.65435z" fill="url(#color-7)"/><path d="M240.86608,183.00428l-2.55409,-0.46291l1.37313,-1.89427z" fill="url(#color-8)"/></g><path d="M239.93685,180.65457l-0.03055,-2.3394l2.35409,1.09357z" fill="url(#color-9)" stroke="#c47c58" stroke-width="0.5" stroke-linecap="butt"/><path d="M236.19903,174.86034c0,0 3.45053,3.10622 3.463,4.63288c0.01314,1.60994 -3.42453,4.69928 -3.42453,4.69928" fill="none" stroke="#369f3f" stroke-width="1" stroke-linecap="round"/><path d="M234.99708,181.92843l-2.06713,-4.91132" fill="none" stroke="#33c43f" stroke-width="1" stroke-linecap="round"/><path d="M232.9341,181.93409l2.10756,-4.89457" fill="none" stroke="#33c43f" stroke-width="1" stroke-linecap="round"/></g></g></svg>